<svg width="80" height="80" viewBox="0 0 80 80" fill="none" xmlns="http://www.w3.org/2000/svg">
<circle cx="40" cy="40" r="38" fill="white" stroke="black" stroke-width="4"/>
<path d="M40.0007 40C40.0007 36.3181 42.9855 33.3334 46.6674 33.3334H47.408C50.6809 33.3334 53.334 35.9865 53.334 39.2594V40.7407C53.334 44.0136 50.6809 46.6667 47.408 46.6667H46.6674C42.9855 46.6667 40.0007 43.6819 40.0007 40V40Z" fill="#6AA7F3"/>
<path d="M26.6674 53.3333C26.6674 49.6514 29.6521 46.6666 33.334 46.6666H40.0007V53.3333C40.0007 57.0152 37.0159 60 33.334 60V60C29.6521 60 26.6674 57.0152 26.6674 53.3333V53.3333Z" fill="#0FA958"/>
<path d="M40.0007 20V33.3333H46.6674C50.3493 33.3333 53.334 30.3486 53.334 26.6667V26.6667C53.334 22.9848 50.3493 20 46.6674 20H40.0007Z" fill="#FF8577"/>
<path d="M26.6674 26.6667C26.6674 30.3486 29.6521 33.3334 33.334 33.3334H40.0007V20H33.334C29.6521 20 26.6674 22.9848 26.6674 26.6667V26.6667Z" fill="#F24E1E"/>
<path d="M26.6674 40C26.6674 43.6819 29.6521 46.6666 33.334 46.6666H40.0007V33.3333H33.334C29.6521 33.3333 26.6674 36.3181 26.6674 40V40Z" fill="#A259FF"/>
</svg>
