<svg width="25" height="41" viewBox="0 0 25 41" fill="none" xmlns="http://www.w3.org/2000/svg">
<path d="M15.2472 0.225161C15.9654 -0.215175 16.9046 0.0101097 17.345 0.728355L24.5207 12.4328C24.9611 13.1511 24.7358 14.0903 24.0175 14.5306C23.2993 14.971 22.3601 14.7457 21.9197 14.0274L15.5413 3.62346L5.13732 10.0019C4.41908 10.4422 3.47986 10.2169 3.03952 9.49869C2.59919 8.78045 2.82447 7.84123 3.54272 7.40089L15.2472 0.225161ZM0.991895 39.8292C0.0164244 38.6564 0.0152626 38.6574 0.0141298 38.6583C0.0137894 38.6586 0.0126876 38.6596 0.0120097 38.6601C0.0106548 38.6613 0.00941629 38.6623 0.00829417 38.6632C0.00604994 38.6651 0.00426929 38.6667 0.00295029 38.6678C0.000312292 38.6701 -0.000481047 38.6708 0.000542147 38.6699C0.0025895 38.6681 0.0119098 38.6597 0.0282857 38.6443C0.0610376 38.6133 0.122022 38.5538 0.209491 38.4606C0.384458 38.2741 0.665289 37.9532 1.03793 37.4573C1.78362 36.4651 2.89459 34.7758 4.25875 32.0695C6.98892 26.6531 10.7171 17.1955 14.5611 1.16985L17.5279 1.88147C13.6458 18.0656 9.84771 27.7597 6.9831 33.4427C5.54986 36.2861 4.34632 38.1333 3.47684 39.2902C3.0419 39.869 2.68999 40.2757 2.4341 40.5484C2.30615 40.6847 2.20218 40.7876 2.12384 40.8616C2.08467 40.8986 2.0519 40.9284 2.02575 40.9516C2.01268 40.9632 2.00126 40.9732 1.99152 40.9816C1.98665 40.9858 1.9822 40.9895 1.97817 40.993C1.97616 40.9947 1.97425 40.9963 1.97245 40.9978C1.97155 40.9985 1.97028 40.9996 1.96983 41C1.96858 41.001 1.96736 41.002 0.991895 39.8292Z" fill="black" fill-opacity="0.5"/>
</svg>
