<svg width="24" height="24" viewBox="0 0 24 24" fill="none" xmlns="http://www.w3.org/2000/svg">
<path d="M8.06066 0.93934C7.47487 0.353553 6.52513 0.353553 5.93934 0.93934C5.35355 1.52513 5.35355 2.47487 5.93934 3.06066L8.06066 0.93934ZM17 12L18.0607 13.0607C18.6464 12.4749 18.6464 11.5251 18.0607 10.9393L17 12ZM5.93934 20.9393C5.35355 21.5251 5.35355 22.4749 5.93934 23.0607C6.52513 23.6464 7.47487 23.6464 8.06066 23.0607L5.93934 20.9393ZM5.93934 3.06066L15.9393 13.0607L18.0607 10.9393L8.06066 0.93934L5.93934 3.06066ZM15.9393 10.9393L5.93934 20.9393L8.06066 23.0607L18.0607 13.0607L15.9393 10.9393Z" fill="#757575"/>
</svg>
