<svg width="56" height="56" viewBox="0 0 56 56" fill="none" xmlns="http://www.w3.org/2000/svg">
<circle cx="28" cy="28" r="26" fill="white" stroke="black" stroke-width="4"/>
<path d="M27.999 28C27.999 25.4227 30.0884 23.3334 32.6657 23.3334H33.1842C35.4751 23.3334 37.3324 25.1906 37.3324 27.4816V28.5185C37.3324 30.8095 35.4751 32.6667 33.1842 32.6667H32.6657C30.0884 32.6667 27.999 30.5774 27.999 28V28Z" fill="#6AA7F3"/>
<path d="M18.666 37.3333C18.666 34.756 20.7554 32.6666 23.3327 32.6666H27.9993V37.3333C27.9993 39.9106 25.91 42 23.3327 42V42C20.7554 42 18.666 39.9106 18.666 37.3333V37.3333Z" fill="#0FA958"/>
<path d="M27.999 14V23.3333H32.6657C35.243 23.3333 37.3324 21.244 37.3324 18.6667V18.6667C37.3324 16.0893 35.243 14 32.6657 14H27.999Z" fill="#FF8577"/>
<path d="M18.666 18.6667C18.666 21.244 20.7554 23.3334 23.3327 23.3334H27.9993V14L23.3327 14C20.7554 14 18.666 16.0894 18.666 18.6667V18.6667Z" fill="#F24E1E"/>
<path d="M18.666 28C18.666 30.5773 20.7554 32.6666 23.3327 32.6666H27.9993V23.3333H23.3327C20.7554 23.3333 18.666 25.4226 18.666 28V28Z" fill="#A259FF"/>
</svg>
