<svg width="28" height="39" viewBox="0 0 28 39" fill="none" xmlns="http://www.w3.org/2000/svg">
<path d="M6.68489 0.793777C7.08385 0.0577504 8.00394 -0.215498 8.73997 0.183462L20.7342 6.68489C21.4703 7.08385 21.7435 8.00394 21.3446 8.73997C20.9456 9.476 20.0255 9.74924 19.2895 9.35028L8.62791 3.57124L2.84886 14.2328C2.4499 14.9688 1.52981 15.2421 0.793781 14.8431C0.0577539 14.4442 -0.215494 13.5241 0.183467 12.788L6.68489 0.793777ZM26.8522 37.8183C25.7047 38.8089 25.7044 38.8085 25.7041 38.8082C25.7039 38.8079 25.7035 38.8075 25.7032 38.8071C25.7025 38.8063 25.7016 38.8053 25.7005 38.804C25.6984 38.8015 25.6955 38.7982 25.6919 38.7939C25.6847 38.7855 25.6745 38.7736 25.6614 38.7582C25.6354 38.7275 25.5978 38.6831 25.5494 38.6251C25.4525 38.5091 25.3119 38.3388 25.132 38.1159C24.7724 37.6701 24.2556 37.0135 23.6169 36.1584C22.3398 34.4484 20.5742 31.9433 18.6032 28.7425C14.6634 22.3445 9.89026 13.1466 6.56443 1.94772L9.47075 1.0846C12.7026 11.967 17.3468 20.9202 21.1848 27.1528C23.1027 30.2674 24.8162 32.6976 26.046 34.3442C26.6607 35.1673 27.1543 35.7941 27.4917 36.2123C27.6603 36.4213 27.7899 36.5782 27.876 36.6813C27.9191 36.7328 27.9513 36.7709 27.9721 36.7954C27.9825 36.8076 27.99 36.8165 27.9946 36.8219C27.9969 36.8245 27.9985 36.8264 27.9993 36.8274C27.9998 36.8278 28 36.8281 28 36.8282C28.0001 36.8282 28 36.8281 28 36.8281C27.9998 36.8279 27.9996 36.8277 26.8522 37.8183Z" fill="black" fill-opacity="0.5"/>
</svg>
