<svg width="80" height="80" viewBox="0 0 80 80" fill="none" xmlns="http://www.w3.org/2000/svg">
<circle cx="40" cy="40" r="38" fill="white" stroke="black" stroke-width="4"/>
<path d="M40.0002 40C40.0002 36.3181 42.985 33.3334 46.6669 33.3334H47.4076C50.6804 33.3334 53.3336 35.9865 53.3336 39.2594V40.7407C53.3336 44.0136 50.6804 46.6667 47.4076 46.6667H46.6669C42.985 46.6667 40.0002 43.6819 40.0002 40V40Z" fill="#6AA7F3"/>
<path d="M26.6667 53.3333C26.6667 49.6514 29.6515 46.6666 33.3334 46.6666H40.0001V53.3333C40.0001 57.0152 37.0153 60 33.3334 60V60C29.6515 60 26.6667 57.0152 26.6667 53.3333V53.3333Z" fill="#0FA958"/>
<path d="M40.0002 20V33.3333H46.6669C50.3488 33.3333 53.3336 30.3486 53.3336 26.6667V26.6667C53.3336 22.9848 50.3488 20 46.6669 20H40.0002Z" fill="#FF8577"/>
<path d="M26.6667 26.6667C26.6667 30.3486 29.6515 33.3334 33.3334 33.3334H40.0001V20H33.3334C29.6515 20 26.6667 22.9848 26.6667 26.6667V26.6667Z" fill="#F24E1E"/>
<path d="M26.6667 40C26.6667 43.6819 29.6515 46.6666 33.3334 46.6666H40.0001V33.3333H33.3334C29.6515 33.3333 26.6667 36.3181 26.6667 40V40Z" fill="#A259FF"/>
</svg>
