<svg width="97" height="23" viewBox="0 0 97 23" fill="none" xmlns="http://www.w3.org/2000/svg">
<path d="M96.9706 4.45219C97.1334 3.6381 96.6055 2.84614 95.7914 2.68329L82.5251 0.0295522C81.711 -0.133293 80.919 0.394642 80.7562 1.20873C80.5933 2.02282 81.1213 2.81478 81.9354 2.97763L93.7277 5.3365L91.3688 17.1288C91.2059 17.9429 91.7339 18.7348 92.548 18.8977C93.362 19.0605 94.154 18.5326 94.3168 17.7185L96.9706 4.45219ZM0.791297 11.1724C-0.00148778 12.4496 -0.000640788 12.4501 0.000372391 12.4507C0.000932275 12.4511 0.00211361 12.4518 0.00323344 12.4525C0.00547415 12.4539 0.00838133 12.4557 0.0119524 12.4579C0.0190949 12.4623 0.028894 12.4683 0.0413328 12.4758C0.0662101 12.491 0.101647 12.5124 0.147506 12.5398C0.239222 12.5945 0.372639 12.673 0.546655 12.7726C0.894667 12.9718 1.40518 13.2553 2.06938 13.6015C3.39759 14.2938 5.34152 15.2374 7.83053 16.2586C12.8069 18.3003 19.973 20.6565 28.7606 21.9301C46.3608 24.4808 70.4223 22.6789 96.3303 5.40812L94.6627 2.90653C69.457 19.7091 46.1659 21.4147 29.1919 18.9547C20.6924 17.7228 13.766 15.4441 8.97169 13.4771C6.57535 12.494 4.71438 11.5898 3.45902 10.9355C2.83143 10.6084 2.35549 10.3438 2.04 10.1633C1.88227 10.073 1.76467 10.0037 1.68831 9.95815C1.65013 9.93536 1.62226 9.9185 1.60484 9.90789C1.59613 9.90259 1.59004 9.89886 1.58657 9.89672C1.58484 9.89566 1.58376 9.895 1.58335 9.89474C1.58314 9.89461 1.58332 9.89472 1.58322 9.89466C1.58357 9.89487 1.58408 9.89519 0.791297 11.1724Z" fill="black" fill-opacity="0.5"/>
</svg>
