<svg width="75" height="141" viewBox="0 0 75 141" fill="none" xmlns="http://www.w3.org/2000/svg">
<path d="M1.45986 0.374217C0.631053 0.397146 -0.0222481 1.08762 0.000678036 1.91642L0.374329 15.4227C0.397256 16.2515 1.08773 16.9048 1.91654 16.8819C2.74535 16.8589 3.39865 16.1685 3.37572 15.3397L3.04359 3.33409L15.0492 3.00196C15.878 2.97904 16.5313 2.28855 16.5083 1.45975C16.4854 0.630937 15.7949 -0.0223636 14.9661 0.000567919L1.45986 0.374217ZM73.0618 140.076C74.541 140.333 74.5412 140.331 74.5415 140.33C74.5416 140.329 74.542 140.327 74.5422 140.326C74.5428 140.322 74.5435 140.318 74.5444 140.313C74.5461 140.303 74.5484 140.288 74.5513 140.271C74.557 140.235 74.5648 140.185 74.5744 140.121C74.5936 139.992 74.6198 139.804 74.6498 139.561C74.7099 139.073 74.7852 138.358 74.8506 137.428C74.9815 135.567 75.0724 132.841 74.9213 129.337C74.6189 122.327 73.3479 112.205 69.4924 99.6534C61.7782 74.5404 43.7389 39.7716 2.53317 0.784396L0.469584 2.96542C41.3324 41.6282 59.0733 75.96 66.6222 100.535C70.3983 112.828 71.6295 122.696 71.9215 129.466C72.0676 132.852 71.9788 135.464 71.8555 137.217C71.7939 138.094 71.7236 138.757 71.6698 139.194C71.6429 139.412 71.6201 139.575 71.6045 139.679C71.5967 139.732 71.5908 139.77 71.587 139.793C71.5851 139.805 71.5838 139.813 71.583 139.817C71.5827 139.819 71.5824 139.821 71.5824 139.821C71.5824 139.821 71.5824 139.821 71.5824 139.821C71.5825 139.82 71.5827 139.819 73.0618 140.076Z" fill="black"/>
</svg>
