<svg width="46" height="147" viewBox="0 0 46 147" fill="none" xmlns="http://www.w3.org/2000/svg">
<path d="M42.3978 0.0112735C43.2217 -0.0895367 43.9713 0.496638 44.0721 1.32053L45.7148 14.7465C45.8156 15.5704 45.2295 16.32 44.4056 16.4208C43.5817 16.5216 42.8321 15.9355 42.7313 15.1116L41.2711 3.17736L29.3369 4.63754C28.513 4.73835 27.7634 4.15217 27.6626 3.32828C27.5618 2.5044 28.1479 1.75478 28.9718 1.65398L42.3978 0.0112735ZM2.38625 146.809C0.89571 147.002 0.895603 147.001 0.895457 147C0.895355 146.999 0.89517 146.998 0.894969 146.996C0.894566 146.993 0.894009 146.988 0.893302 146.983C0.891888 146.972 0.889874 146.956 0.887295 146.935C0.882136 146.893 0.874714 146.832 0.865302 146.751C0.846478 146.591 0.819693 146.355 0.787132 146.046C0.72201 145.428 0.633772 144.517 0.539896 143.339C0.352153 140.982 0.1418 137.552 0.0487549 133.237C-0.137304 124.608 0.145553 112.433 2.01925 98.2241C5.76521 69.8179 15.8804 33.2076 41.3964 0.577261L43.7643 2.42884C18.6828 34.5035 8.70098 70.5463 4.99926 98.6171C3.14911 112.647 2.87046 124.666 3.05386 133.172C3.14555 137.424 3.35267 140.796 3.53621 143.1C3.62798 144.252 3.71384 145.137 3.7764 145.731C3.80769 146.028 3.83314 146.252 3.8506 146.401C3.85933 146.475 3.86605 146.531 3.87051 146.567C3.87274 146.585 3.8744 146.598 3.87545 146.607C3.87598 146.611 3.87636 146.614 3.87659 146.615C3.8767 146.616 3.87675 146.617 3.8768 146.617C3.87682 146.617 3.87679 146.617 2.38625 146.809Z" fill="black" fill-opacity="0.5"/>
</svg>
