<svg width="133" height="133" viewBox="0 0 133 133" fill="none" xmlns="http://www.w3.org/2000/svg">
<circle cx="66.5" cy="66.5" r="66.5" fill="#F24E1E"/>
<mask id="mask0_103_907" style="mask-type:alpha" maskUnits="userSpaceOnUse" x="0" y="0" width="133" height="133">
<circle cx="66.5" cy="66.5" r="66.5" fill="#FF0000"/>
</mask>
<g mask="url(#mask0_103_907)">
<rect x="59.5005" y="38.5001" width="17.5" height="45.5" fill="white"/>
<path d="M59.0625 87.5002H77.4375L79.4275 92.0487C79.9333 93.2049 79.0862 94.5002 77.8242 94.5002H58.6758C57.4138 94.5002 56.5667 93.2049 57.0725 92.0487L59.0625 87.5002Z" fill="white"/>
<path d="M61.2563 26.5725C61.9325 23.3264 64.7934 21.0002 68.1091 21.0002H68.3919C71.7076 21.0002 74.5685 23.3264 75.2447 26.5725L77.0005 35.0002H59.5005L61.2563 26.5725Z" fill="white"/>
<path d="M38.5 79.0769C38.5 75.4223 39.4537 71.831 41.2669 68.658L51.4923 50.7636C52.1154 49.673 53.2751 49 54.5311 49H56V84H38.5V79.0769Z" fill="white"/>
<path d="M98.0005 79.0769C98.0005 75.4223 97.0468 71.831 95.2336 68.658L85.0082 50.7636C84.3851 49.673 83.2254 49 81.9694 49H80.5005V84H98.0005V79.0769Z" fill="white"/>
<path d="M59.5 98.0001H63L56 133H52.5L59.5 98.0001Z" fill="white"/>
<rect x="66.5" y="98.0001" width="3.5" height="35" fill="white"/>
<path d="M73.5 98.0001H77L84 133H80.5L73.5 98.0001Z" fill="white"/>
</g>
</svg>
