<svg width="23" height="56" viewBox="0 0 23 56" fill="none" xmlns="http://www.w3.org/2000/svg">
<path d="M9.39572 0.501885C9.94881 -0.117337 10.8992 -0.170949 11.5184 0.382138L21.6092 9.39523C22.2284 9.94832 22.282 10.8987 21.7289 11.5179C21.1758 12.1371 20.2255 12.1907 19.6063 11.6376L10.6367 3.62599L2.62503 12.5956C2.07194 13.2148 1.1216 13.2684 0.502377 12.7153C-0.116844 12.1622 -0.170457 11.2119 0.382633 10.5927L9.39572 0.501885ZM21.543 55.1221C20.3239 56.0018 20.3233 56.0009 20.3225 55.9999C20.3223 55.9995 20.3215 55.9985 20.321 55.9977C20.3198 55.9961 20.3186 55.9944 20.3172 55.9924C20.3144 55.9885 20.3111 55.9839 20.3074 55.9785C20.2998 55.9678 20.2902 55.954 20.2786 55.9372C20.2555 55.9035 20.2245 55.8575 20.1861 55.7988C20.1094 55.6812 20.003 55.5123 19.8706 55.2879C19.6059 54.8391 19.2373 54.1684 18.794 53.2419C17.9074 51.3889 16.7219 48.5128 15.47 44.342C12.9665 36.0022 10.1944 22.4777 9.01598 1.58801L12.0179 1.41866C13.1858 22.1213 15.9267 35.4061 18.3497 43.4776C19.5609 47.5125 20.692 50.2425 21.5062 51.9442C21.9133 52.795 22.2411 53.3888 22.4602 53.7602C22.5698 53.9459 22.6522 54.0761 22.7037 54.1549C22.7294 54.1944 22.7475 54.221 22.7573 54.2354C22.7623 54.2426 22.7652 54.2467 22.7659 54.2478C22.7663 54.2484 22.7662 54.2482 22.7656 54.2473C22.7652 54.2468 22.7648 54.2462 22.7642 54.2453C22.7639 54.2449 22.7633 54.2442 22.7632 54.2439C22.7626 54.2431 22.762 54.2423 21.543 55.1221Z" fill="black" fill-opacity="0.5"/>
</svg>
