<svg width="68" height="22" viewBox="0 0 68 22" fill="none" xmlns="http://www.w3.org/2000/svg">
<path d="M67.8078 8.85345C68.2135 8.12616 67.9528 7.20771 67.2255 6.80204L55.3735 0.191265C54.6462 -0.214404 53.7278 0.0463228 53.3221 0.773616C52.9164 1.50091 53.1772 2.41936 53.9045 2.82503L64.4395 8.70127L58.5633 19.2363C58.1576 19.9636 58.4183 20.8821 59.1456 21.2877C59.8729 21.6934 60.7914 21.4327 61.197 20.7054L67.8078 8.85345ZM0.644747 8.11897C-0.00221726 9.48101 -0.00143374 9.48138 -0.000556027 9.4818C-0.000137956 9.482 0.000834953 9.48246 0.00167155 9.48285C0.00334534 9.48364 0.00539637 9.48461 0.00782426 9.48575C0.0126799 9.48803 0.0190428 9.49101 0.0269091 9.49467C0.0426417 9.50199 0.0643883 9.51202 0.0921181 9.52464C0.147577 9.54988 0.226972 9.58545 0.330056 9.63028C0.53622 9.71994 0.837159 9.84665 1.2309 10.0018C2.01837 10.312 3.17718 10.736 4.69155 11.2047C7.72032 12.1422 12.1717 13.2587 17.919 14.0019C29.418 15.4888 46.0863 15.4788 66.9027 9.56949L66.0791 6.66835C45.6809 12.459 29.426 12.449 18.3057 11.011C12.7432 10.2917 8.46084 9.21446 5.58324 8.32381C4.14443 7.87847 3.05691 7.47981 2.33635 7.19592C1.97608 7.05398 1.70758 6.94075 1.53281 6.86474C1.44542 6.82674 1.38148 6.79804 1.34121 6.77972C1.32108 6.77055 1.30686 6.76399 1.2986 6.76014C1.29447 6.75822 1.29183 6.75699 1.29068 6.75645C1.29011 6.75617 1.2899 6.75608 1.29008 6.75616C1.29016 6.7562 1.29057 6.75639 1.29061 6.75641C1.29111 6.75665 1.29171 6.75693 0.644747 8.11897Z" fill="black" fill-opacity="0.5"/>
</svg>
