<svg width="42" height="21" viewBox="0 0 42 21" fill="none" xmlns="http://www.w3.org/2000/svg">
<path d="M41.7989 7.3447C42.1202 6.5648 41.7484 5.67212 40.9685 5.35086L28.2592 0.115523C27.4793 -0.205743 26.5866 0.166059 26.2653 0.945966C25.9441 1.72587 26.3159 2.61855 27.0958 2.93981L38.3929 7.59344L33.7393 18.8906C33.418 19.6705 33.7898 20.5632 34.5697 20.8845C35.3497 21.2057 36.2423 20.8339 36.5636 20.054L41.7989 7.3447ZM0.0431718 15.1402C-0.000856507 16.6668 -0.000408575 16.6669 0.000111653 16.6669C0.000381464 16.6669 0.000974275 16.6669 0.00151351 16.6669C0.00259257 16.6669 0.00395981 16.667 0.00561516 16.667C0.00892554 16.6671 0.0133861 16.6672 0.0189897 16.6674C0.0301965 16.6677 0.0459742 16.668 0.0662603 16.6684C0.106832 16.6693 0.165438 16.6703 0.241578 16.6713C0.393853 16.6732 0.61628 16.6748 0.90484 16.6735C1.48193 16.6709 2.32373 16.657 3.39807 16.612C5.54642 16.5221 8.62675 16.3079 12.3813 15.8118C19.8863 14.82 30.1088 12.6982 40.974 8.17286L39.7996 5.35314C29.2414 9.75064 19.2921 11.8175 11.9811 12.7836C8.32768 13.2664 5.339 13.4735 3.27032 13.5601C2.23615 13.6034 1.43244 13.6166 0.891146 13.619C0.620513 13.6202 0.41553 13.6187 0.280192 13.617C0.212526 13.6162 0.162276 13.6153 0.129942 13.6146C0.113775 13.6142 0.102088 13.614 0.0949438 13.6138C0.0913715 13.6137 0.0889348 13.6136 0.0876416 13.6136C0.086995 13.6136 0.0866342 13.6136 0.0865602 13.6136C0.0865232 13.6136 0.0866834 13.6136 0.0866647 13.6136C0.0868963 13.6136 0.0872001 13.6136 0.0431718 15.1402Z" fill="black" fill-opacity="0.5"/>
</svg>
