<svg width="48" height="48" viewBox="0 0 48 48" fill="none" xmlns="http://www.w3.org/2000/svg">
<path d="M11.25 14.25H18M18 14.25C18 15.4926 19.0074 16.5 20.25 16.5C21.4926 16.5 22.5 15.4926 22.5 14.25M18 14.25C18 13.0074 19.0074 12 20.25 12C21.4926 12 22.5 13.0074 22.5 14.25M11.25 23.25H27M27 23.25C27 24.4926 28.0074 25.5 29.25 25.5C30.4926 25.5 31.5 24.4926 31.5 23.25M27 23.25C27 22.0074 28.0074 21 29.25 21C30.4926 21 31.5 22.0074 31.5 23.25M11.25 32.25H15M15 32.25C15 33.4926 16.0074 34.5 17.25 34.5C18.4926 34.5 19.5 33.4926 19.5 32.25M15 32.25C15 31.0074 16.0074 30 17.25 30C18.4926 30 19.5 31.0074 19.5 32.25M22.5 14.25H36.75M31.5 23.25H36.75M19.5 32.25H36.75" stroke="#757575" stroke-width="1.5" stroke-linecap="round" stroke-linejoin="round"/>
</svg>
