<svg width="145" height="154" viewBox="0 0 145 154" fill="none" xmlns="http://www.w3.org/2000/svg">
<path d="M144.442 12.1784C145.031 11.5891 145.031 10.6338 144.442 10.0445L134.839 0.441933C134.25 -0.147328 133.295 -0.147328 132.705 0.441933C132.116 1.0312 132.116 1.98658 132.705 2.57584L141.241 11.1115L132.705 19.6471C132.116 20.2363 132.116 21.1917 132.705 21.781C133.295 22.3702 134.25 22.3702 134.839 21.781L144.442 12.1784ZM144.442 143.955C145.031 143.366 145.031 142.411 144.442 141.822L134.839 132.219C134.25 131.63 133.295 131.63 132.705 132.219C132.116 132.808 132.116 133.764 132.705 134.353L141.241 142.889L132.705 151.424C132.116 152.013 132.116 152.969 132.705 153.558C133.295 154.147 134.25 154.147 134.839 153.558L144.442 143.955ZM144.442 79.0729C145.031 78.4836 145.031 77.5282 144.442 76.939L134.839 67.3364C134.25 66.7472 133.295 66.7472 132.705 67.3364C132.116 67.9257 132.116 68.8811 132.705 69.4703L141.241 78.0059L132.705 86.5415C132.116 87.1308 132.116 88.0862 132.705 88.6755C133.295 89.2647 134.25 89.2647 134.839 88.6755L144.442 79.0729ZM143.375 9.60256H132.31V12.6204H143.375V9.60256ZM132.31 144.397H143.375V141.38H132.31V144.397ZM115.712 26.2004V78.0059H118.729V26.2004H115.712ZM115.712 78.0059V127.8H118.729V78.0059H115.712ZM117.221 76.497C73.6567 76.497 35.7398 87.4602 9.05369e-05 121.169L2.07071 123.365C37.1486 90.2798 74.2743 79.5148 117.221 79.5148V76.497ZM117.221 79.5148H143.375V76.497H117.221V79.5148ZM132.31 141.38C124.809 141.38 118.729 135.3 118.729 127.8H115.712C115.712 136.966 123.143 144.397 132.31 144.397V141.38ZM132.31 9.60256C123.143 9.60256 115.712 17.0337 115.712 26.2004H118.729C118.729 18.7004 124.809 12.6204 132.31 12.6204V9.60256Z" fill="black" fill-opacity="0.5"/>
</svg>
