<svg width="60" height="201" viewBox="0 0 60 201" fill="none" xmlns="http://www.w3.org/2000/svg">
<path d="M54.6223 0.0390685C55.4311 -0.148129 56.2385 0.35579 56.4257 1.16461L59.4762 14.3449C59.6634 15.1537 59.1595 15.9611 58.3506 16.1483C57.5418 16.3355 56.7344 15.8316 56.5472 15.0228L53.8357 3.30696L42.1199 6.01852C41.311 6.20571 40.5036 5.70179 40.3164 4.89299C40.1292 4.08418 40.6332 3.27676 41.442 3.08956L54.6223 0.0390685ZM1.55437 200.949C0.0520937 201.002 0.0520651 201.001 0.052023 201C0.0519899 200.999 0.0519341 200.997 0.0518691 200.995C0.0517396 200.991 0.0515572 200.986 0.0513249 200.979C0.050861 200.964 0.0501993 200.944 0.0493707 200.917C0.047714 200.862 0.0453902 200.782 0.0426462 200.676C0.0371595 200.465 0.029993 200.152 0.0231238 199.741C0.00938551 198.919 -0.00316471 197.706 0.00128697 196.132C0.0101912 192.984 0.0871027 188.391 0.358589 182.596C0.901518 171.008 2.22286 154.607 5.33635 135.336C11.5612 96.8065 24.9609 46.7333 53.686 0.707671L56.2364 2.29942C27.7948 47.8708 14.4912 97.5205 8.30425 135.815C5.21186 154.956 3.90024 171.242 3.36167 182.737C3.09241 188.484 3.01644 193.033 3.00765 196.141C3.00326 197.694 3.01566 198.888 3.02908 199.691C3.03579 200.092 3.04276 200.396 3.04801 200.598C3.05064 200.699 3.05284 200.775 3.05436 200.825C3.05512 200.85 3.05571 200.869 3.0561 200.881C3.0563 200.887 3.05644 200.891 3.05654 200.894C3.05658 200.895 3.05661 200.896 3.05663 200.897C3.05665 200.897 3.05665 200.897 1.55437 200.949Z" fill="black" fill-opacity="0.5"/>
</svg>
