<svg width="48" height="48" viewBox="0 0 48 48" fill="none" xmlns="http://www.w3.org/2000/svg">
<path d="M25.1031 16.5C25.5173 16.5 25.8531 16.1642 25.8531 15.75C25.8531 15.3358 25.5173 15 25.1031 15H13.5C13.0858 15 12.75 15.3358 12.75 15.75V34.5C12.75 34.9143 13.0858 35.25 13.5 35.25H32.25C32.6642 35.25 33 34.9143 33 34.5V24.0048C33 23.5906 32.6642 23.2548 32.25 23.2548C31.8358 23.2548 31.5 23.5906 31.5 24.0048V33.75H14.25V16.5H25.1031ZM21.7907 22.6062C21.6766 22.7223 21.6034 22.8725 21.5821 23.0339L21.1857 26.0418C21.1562 26.2653 21.2289 26.4901 21.3834 26.6542C21.538 26.8182 21.7582 26.904 21.983 26.8879L25.1143 26.6629C25.2964 26.6498 25.4675 26.5708 25.5955 26.4405L36.5349 15.3087C36.8217 15.0169 36.8217 14.5491 36.5349 14.2573L33.8001 11.4743C33.6591 11.3308 33.4663 11.25 33.2651 11.25C33.064 11.25 32.8712 11.3308 32.7302 11.4743L21.7907 22.6062Z" stroke="#757575" stroke-width="1.5" stroke-linecap="round" stroke-linejoin="round"/>
</svg>
