<svg width="48" height="48" viewBox="0 0 48 48" fill="none" xmlns="http://www.w3.org/2000/svg">
<path d="M16 23.5L23.5 31L43.5 11" stroke="black" stroke-width="4" stroke-linecap="round" stroke-linejoin="round"/>
<path fill-rule="evenodd" clip-rule="evenodd" d="M12 6C8.68629 6 6 8.68629 6 12V36C6 39.3137 8.68629 42 12 42H36C39.3137 42 42 39.3137 42 36V20.3284L38 24.3284V36C38 37.1046 37.1046 38 36 38H23.5014C23.5005 38 23.4995 38 23.4986 38H12C10.8954 38 10 37.1046 10 36V12C10 10.8954 10.8954 10 12 10H36C37.1046 10 38 10.8954 38 12V18.6716L42 14.6716V12C42 8.68629 39.3137 6 36 6H12Z" fill="black"/>
</svg>
