<svg width="77" height="69" viewBox="0 0 77 69" fill="none" xmlns="http://www.w3.org/2000/svg">
<path d="M6.62617 68.2104C7.02165 68.9417 7.93507 69.2139 8.66635 68.8185L20.5832 62.3737C21.3145 61.9782 21.5867 61.0648 21.1912 60.3335C20.7958 59.6023 19.8823 59.33 19.1511 59.7255L8.55828 65.4542L2.82962 54.8614C2.43414 54.1301 1.52072 53.8579 0.789444 54.2534C0.0581648 54.6489 -0.214055 55.5623 0.181428 56.2936L6.62617 68.2104ZM76.4111 1.49077C76.2045 -0.00031253 76.2035 -0.000175139 76.2024 -1.01091e-05C76.2017 8.15472e-05 76.2003 0.000273723 76.199 0.000457065C76.1964 0.000824289 76.193 0.00130444 76.1889 0.00189771C76.1806 0.00308587 76.1692 0.00473154 76.1547 0.0068574C76.1259 0.011109 76.0849 0.0172791 76.032 0.0255412C75.9264 0.0420642 75.7734 0.0669542 75.5756 0.101592C75.1801 0.170863 74.6054 0.279141 73.8723 0.437474C72.4062 0.754094 70.305 1.27115 67.7344 2.07723C62.5947 3.68887 55.5671 6.45935 47.9832 11.1014C32.794 20.3985 15.4129 37.183 6.50764 67.0644L9.39289 67.9243C18.0567 38.8529 34.9061 22.6356 49.555 13.6692C56.8902 9.17939 63.6836 6.50262 68.6352 4.94996C71.1101 4.17389 73.1221 3.67954 74.5078 3.38028C75.2006 3.23068 75.7364 3.1299 76.095 3.0671C76.2742 3.03571 76.4091 3.01381 76.4971 3.00005C76.5411 2.99317 76.5734 2.98833 76.5936 2.98536C76.6037 2.98387 76.6108 2.98284 76.6148 2.98227C76.6168 2.98198 76.6181 2.9818 76.6186 2.98174C76.6188 2.9817 76.6186 2.98173 76.6187 2.98172C76.6183 2.98177 76.6177 2.98186 76.4111 1.49077Z" fill="black" fill-opacity="0.5"/>
</svg>
