<svg width="23" height="56" viewBox="0 0 23 56" fill="none" xmlns="http://www.w3.org/2000/svg">
<path d="M13.3705 0.501885C12.8174 -0.117337 11.8671 -0.170949 11.2479 0.382138L1.15707 9.39523C0.53785 9.94832 0.484239 10.8987 1.03733 11.5179C1.59041 12.1371 2.54076 12.1907 3.15998 11.6376L12.1296 3.62599L20.1412 12.5956C20.6943 13.2148 21.6446 13.2684 22.2639 12.7153C22.8831 12.1622 22.9367 11.2119 22.3836 10.5927L13.3705 0.501885ZM1.22329 55.1221C2.4423 56.0018 2.44298 56.0009 2.44369 55.9999C2.44397 55.9995 2.44472 55.9985 2.44528 55.9977C2.44641 55.9961 2.44767 55.9944 2.44905 55.9924C2.45182 55.9885 2.45509 55.9839 2.45888 55.9785C2.46645 55.9678 2.47604 55.954 2.4876 55.9372C2.51072 55.9035 2.54171 55.8575 2.5801 55.7988C2.65688 55.6812 2.76327 55.5123 2.89564 55.2879C3.16038 54.8391 3.52895 54.1684 3.97225 53.2419C4.85884 51.3889 6.04429 48.5128 7.29628 44.342C9.79978 36.0022 12.5718 22.4777 13.7503 1.58801L10.7484 1.41866C9.58049 22.1213 6.8395 35.4061 4.41657 43.4776C3.20535 47.5125 2.07422 50.2425 1.26005 51.9442C0.85297 52.795 0.525102 53.3888 0.306011 53.7602C0.196462 53.9459 0.114087 54.0761 0.0625788 54.1549C0.0368226 54.1944 0.0187803 54.221 0.00891167 54.2354C0.0039764 54.2426 0.00108476 54.2467 0.000294028 54.2478C-0.000102903 54.2484 2.68596e-05 54.2482 0.000687972 54.2473C0.00102007 54.2468 0.00148383 54.2462 0.00208062 54.2453C0.00238066 54.2449 0.00292812 54.2442 0.00307824 54.2439C0.00366117 54.2431 0.00427756 54.2423 1.22329 55.1221Z" fill="black" fill-opacity="0.5"/>
</svg>
