<svg width="188" height="101" viewBox="0 0 188 101" fill="none" xmlns="http://www.w3.org/2000/svg">
<path d="M4.40342 99.9756C4.66878 100.763 5.52214 101.186 6.30946 100.921L19.1396 96.5966C19.9269 96.3312 20.3501 95.4778 20.0847 94.6905C19.8194 93.9032 18.966 93.4801 18.1787 93.7454L6.77411 97.5891L2.93037 86.1846C2.66501 85.3972 1.81166 84.9741 1.02433 85.2395C0.237015 85.5048 -0.186126 86.3582 0.0792324 87.1455L4.40342 99.9756ZM187.75 1.50439C187.75 2.92051e-05 187.749 2.93393e-05 187.747 3.04253e-05C187.746 3.14095e-05 187.744 3.33561e-05 187.742 3.67207e-05C187.737 4.37489e-05 187.73 5.69326e-05 187.721 8.24742e-05C187.704 0.000133077 187.678 0.000233112 187.644 0.000428465C187.577 0.000819489 187.478 0.00159332 187.348 0.00312446C187.088 0.00618623 186.705 0.0122772 186.204 0.0243939C185.203 0.0486266 183.734 0.0969632 181.849 0.193385C178.08 0.386216 172.65 0.771434 165.985 1.54107C152.658 3.07997 134.378 6.1578 114.564 12.3167C74.9628 24.6259 29.0336 49.3109 4.48122 98.8269L7.17677 100.163C31.2129 51.6887 76.2442 27.3783 115.457 15.1898C135.049 9.09986 153.138 6.05326 166.33 4.52994C172.924 3.76847 178.29 3.38813 182.003 3.19818C183.859 3.10321 185.301 3.05585 186.277 3.03224C186.765 3.02043 187.136 3.01456 187.384 3.01164C187.508 3.01018 187.601 3.00946 187.662 3.0091C187.693 3.00892 187.715 3.00884 187.73 3.00879C187.737 3.00877 187.743 3.00876 187.746 3.00876C187.748 3.00875 187.749 3.00875 187.75 3.00875C187.75 3.00875 187.75 3.00875 187.75 1.50439Z" fill="black" fill-opacity="0.5"/>
</svg>
