<svg width="64" height="199" viewBox="0 0 64 199" fill="none" xmlns="http://www.w3.org/2000/svg">
<path d="M1.46018 0.374351C0.631131 0.397289 -0.022352 1.08795 0.000575203 1.917L0.374335 15.4271C0.397268 16.2561 1.08794 16.9096 1.91698 16.8867C2.74603 16.8637 3.39951 16.1731 3.37657 15.344L3.04435 3.33506L15.0533 3.00284C15.8824 2.97991 16.5358 2.28923 16.5129 1.46019C16.49 0.631147 15.7993 -0.0223365 14.9703 0.000596187L1.46018 0.374351ZM59.0667 198.598C60.5375 198.901 60.5377 198.9 60.538 198.898C60.5382 198.897 60.5386 198.895 60.5391 198.893C60.54 198.889 60.5412 198.882 60.5429 198.874C60.5461 198.858 60.5508 198.835 60.5568 198.805C60.5689 198.744 60.5865 198.655 60.6091 198.538C60.6542 198.304 60.7193 197.959 60.8003 197.506C60.9623 196.602 61.188 195.271 61.4454 193.553C61.9601 190.116 62.6016 185.129 63.113 178.905C64.1355 166.46 64.6388 149.055 62.5622 129.207C58.41 89.5222 43.9284 39.9506 2.53379 0.784648L0.469617 2.96629C41.1668 41.4723 55.4676 90.2618 59.5751 129.52C61.6282 149.143 61.1305 166.356 60.1197 178.659C59.6143 184.81 58.981 189.731 58.4751 193.108C58.2222 194.797 58.0011 196.099 57.8439 196.977C57.7653 197.416 57.7027 197.748 57.66 197.969C57.6387 198.08 57.6223 198.163 57.6115 198.217C57.6061 198.244 57.602 198.265 57.5994 198.277C57.5981 198.284 57.5971 198.289 57.5965 198.291C57.5962 198.293 57.5961 198.294 57.5959 198.294C57.5959 198.295 57.5959 198.295 59.0667 198.598Z" fill="black"/>
</svg>
