<svg width="97" height="23" viewBox="0 0 97 23" fill="none" xmlns="http://www.w3.org/2000/svg">
<path d="M0.0294188 4.45212C-0.133434 3.63804 0.394507 2.84607 1.2086 2.68323L14.4749 0.029491C15.289 -0.133354 16.081 0.394581 16.2438 1.20867C16.4067 2.02276 15.8787 2.81472 15.0646 2.97757L3.27235 5.33644L5.63123 17.1287C5.79407 17.9428 5.26614 18.7348 4.45205 18.8976C3.63796 19.0605 2.846 18.5325 2.68315 17.7185L0.0294188 4.45212ZM96.2087 11.1723C97.0015 12.4495 97.0006 12.45 96.9996 12.4507C96.9991 12.451 96.9979 12.4517 96.9968 12.4524C96.9945 12.4538 96.9916 12.4556 96.988 12.4578C96.9809 12.4622 96.9711 12.4682 96.9587 12.4758C96.9338 12.4909 96.8984 12.5124 96.8525 12.5397C96.7608 12.5945 96.6274 12.673 96.4533 12.7726C96.1053 12.9717 95.5948 13.2553 94.9306 13.6015C93.6024 14.2938 91.6585 15.2374 89.1695 16.2585C84.1931 18.3002 77.027 20.6564 68.2394 21.93C50.6392 24.4808 26.5777 22.6788 0.669651 5.40806L2.33725 2.90647C27.543 19.709 50.8341 21.4146 67.8081 18.9546C76.3076 17.7228 83.234 15.444 88.0283 13.477C90.4246 12.4939 92.2856 11.5898 93.541 10.9354C94.1686 10.6083 94.6445 10.3438 94.96 10.1632C95.1177 10.0729 95.2353 10.0037 95.3117 9.95809C95.3499 9.9353 95.3777 9.91844 95.3952 9.90783C95.4039 9.90253 95.41 9.89879 95.4134 9.89666C95.4152 9.8956 95.4162 9.89493 95.4167 9.89468C95.4169 9.89455 95.4167 9.89466 95.4168 9.8946C95.4164 9.89481 95.4159 9.89513 96.2087 11.1723Z" fill="black" fill-opacity="0.5"/>
</svg>
