<svg width="53" height="144" viewBox="0 0 53 144" fill="none" xmlns="http://www.w3.org/2000/svg">
<path d="M2.42937 0.00297043C1.60236 -0.0483445 0.890347 0.580482 0.83904 1.4075L0.00290139 14.8843C-0.0484099 15.7113 0.580418 16.4233 1.40742 16.4747C2.23443 16.526 2.94644 15.8971 2.99775 15.0701L3.74099 3.09073L15.7204 3.83396C16.5474 3.88527 17.2594 3.25645 17.3107 2.42943C17.362 1.60243 16.7332 0.890412 15.9062 0.839111L2.42937 0.00297043ZM51.0562 143.899C52.553 144.002 52.5531 144.001 52.5531 144C52.5532 143.999 52.5533 143.998 52.5534 143.996C52.5536 143.993 52.5539 143.988 52.5543 143.983C52.555 143.971 52.5561 143.955 52.5574 143.934C52.56 143.892 52.5638 143.831 52.5684 143.75C52.5776 143.59 52.5902 143.353 52.6042 143.043C52.6322 142.423 52.6658 141.51 52.6891 140.331C52.7356 137.971 52.7406 134.54 52.576 130.235C52.2467 121.625 51.2386 109.509 48.524 95.4624C43.097 67.3795 30.8336 31.5011 3.461 0.507242L1.21193 2.49355C28.1184 32.9595 40.2149 68.2804 45.5779 96.0318C48.2584 109.902 49.253 121.862 49.5775 130.349C49.7398 134.592 49.7346 137.965 49.6891 140.271C49.6663 141.425 49.6335 142.312 49.6066 142.907C49.5932 143.205 49.5812 143.43 49.5727 143.579C49.5684 143.654 49.565 143.709 49.5627 143.746C49.5616 143.764 49.5607 143.777 49.5601 143.786C49.5599 143.79 49.5597 143.793 49.5596 143.795C49.5595 143.795 49.5595 143.796 49.5594 143.796C49.5594 143.796 49.5594 143.796 51.0562 143.899Z" fill="black"/>
</svg>
