<svg width="60" height="201" viewBox="0 0 60 201" fill="none" xmlns="http://www.w3.org/2000/svg">
<path d="M4.89268 0.0390685C4.08387 -0.148129 3.27645 0.35579 3.08926 1.16461L0.0387604 14.3449C-0.148435 15.1537 0.355483 15.9611 1.16429 16.1483C1.9731 16.3355 2.78052 15.8316 2.96771 15.0228L5.67926 3.30696L17.3951 6.01852C18.2039 6.20571 19.0113 5.70179 19.1985 4.89299C19.3857 4.08418 18.8818 3.27676 18.073 3.08956L4.89268 0.0390685ZM57.9606 200.949C59.4628 201.002 59.4629 201.001 59.4629 201C59.463 200.999 59.463 200.997 59.4631 200.995C59.4632 200.991 59.4634 200.986 59.4636 200.979C59.4641 200.964 59.4647 200.944 59.4656 200.917C59.4672 200.862 59.4696 200.782 59.4723 200.676C59.4778 200.465 59.4849 200.152 59.4918 199.741C59.5056 198.919 59.5181 197.706 59.5137 196.132C59.5048 192.984 59.4278 188.391 59.1564 182.596C58.6134 171.008 57.2921 154.607 54.1786 135.336C47.9538 96.8065 34.554 46.7333 5.82894 0.707671L3.27852 2.29942C31.7201 47.8708 45.0238 97.5205 51.2107 135.815C54.3031 154.956 55.6147 171.242 56.1533 182.737C56.4225 188.484 56.4985 193.033 56.5073 196.141C56.5117 197.694 56.4993 198.888 56.4859 199.691C56.4791 200.092 56.4722 200.396 56.4669 200.598C56.4643 200.699 56.4621 200.775 56.4606 200.825C56.4598 200.85 56.4592 200.869 56.4588 200.881C56.4586 200.887 56.4585 200.891 56.4584 200.894C56.4584 200.895 56.4583 200.896 56.4583 200.897C56.4583 200.897 56.4583 200.897 57.9606 200.949Z" fill="black" fill-opacity="0.5"/>
</svg>
