<svg width="47" height="34" viewBox="0 0 47 34" fill="none" xmlns="http://www.w3.org/2000/svg">
<path d="M2.73848 1.20051C2.90466 0.388304 3.69779 -0.135406 4.51 0.030771L17.7456 2.73876C18.5578 2.90494 19.0815 3.69807 18.9153 4.51027C18.7492 5.32248 17.956 5.84618 17.1438 5.68001L5.37884 3.27291L2.97174 15.0379C2.80556 15.8501 2.01243 16.3738 1.20023 16.2076C0.388023 16.0415 -0.135684 15.2483 0.0304914 14.4361L2.73848 1.20051ZM46.2396 32.5239C45.9684 34.0003 45.9677 34.0001 45.9668 34C45.9664 33.9999 45.9655 33.9997 45.9647 33.9996C45.963 33.9993 45.961 33.9989 45.9586 33.9985C45.9539 33.9976 45.9476 33.9964 45.9399 33.9949C45.9245 33.992 45.9031 33.9878 45.876 33.9824C45.8218 33.9717 45.7444 33.9559 45.645 33.9345C45.4461 33.8918 45.1585 33.8269 44.7901 33.7355C44.0535 33.5526 42.9929 33.2634 41.6705 32.8334C39.0264 31.9735 35.3314 30.5489 31.084 28.2816C22.5859 23.7452 11.8731 15.8324 2.95646 2.32852L5.46176 0.674267C14.0558 13.6896 24.3583 21.2881 32.4978 25.6331C36.5691 27.8065 40.0985 29.1652 42.599 29.9784C43.849 30.3849 44.8408 30.6547 45.5135 30.8217C45.8498 30.9052 46.1061 30.9629 46.2749 30.9992C46.3593 31.0173 46.4218 31.03 46.4614 31.0379C46.4812 31.0418 46.4953 31.0446 46.5036 31.0461C46.5077 31.0469 46.5104 31.0474 46.5116 31.0477C46.5122 31.0478 46.5124 31.0478 46.5123 31.0478C46.5122 31.0478 46.5118 31.0477 46.5118 31.0477C46.5113 31.0476 46.5107 31.0475 46.2396 32.5239Z" fill="black" fill-opacity="0.5"/>
</svg>
