<svg width="73" height="57" viewBox="0 0 73 57" fill="none" xmlns="http://www.w3.org/2000/svg">
<path d="M4.48666 0.029895C3.669 -0.134487 2.87289 0.395105 2.7085 1.21277L0.0297235 14.5374C-0.134661 15.3551 0.39493 16.1512 1.2126 16.3156C2.03027 16.48 2.82638 15.9504 2.99076 15.1327L5.3719 3.28858L17.2161 5.66972C18.0337 5.8341 18.8298 5.30451 18.9942 4.48684C19.1586 3.66917 18.629 2.87306 17.8113 2.70868L4.48666 0.029895ZM72.5456 55.19C72.9997 53.7497 73.0001 53.7498 73.0002 53.7499C73.0001 53.7498 73.0001 53.7499 72.9998 53.7498C72.9992 53.7496 72.998 53.7492 72.9962 53.7486C72.9925 53.7474 72.9863 53.7455 72.9777 53.7427C72.9604 53.7371 72.9333 53.7284 72.8965 53.7163C72.823 53.6922 72.711 53.655 72.562 53.6043C72.2641 53.5028 71.8188 53.3472 71.2396 53.1338C70.0812 52.7071 68.3876 52.0497 66.2671 51.1333C62.0252 49.3002 56.0795 46.4328 49.2937 42.3053C35.7171 34.0476 18.8139 20.7688 5.44637 0.673995L2.93167 2.34683C16.6084 22.9063 33.8835 36.4674 47.7242 44.8858C54.6469 49.0965 60.7196 52.0262 65.0689 53.9058C67.244 54.8457 68.9892 55.5236 70.1957 55.968C70.7989 56.1902 71.2676 56.3541 71.5881 56.4632C71.7483 56.5178 71.8715 56.5587 71.956 56.5864C71.9983 56.6003 72.0308 56.6108 72.0535 56.6181C72.0648 56.6217 72.0736 56.6246 72.08 56.6266C72.0832 56.6276 72.0857 56.6284 72.0876 56.629C72.0886 56.6293 72.0896 56.6296 72.0901 56.6298C72.0909 56.63 72.0915 56.6302 72.5456 55.19Z" fill="black" fill-opacity="0.5"/>
</svg>
