<svg width="33" height="33" viewBox="0 0 33 33" fill="none" xmlns="http://www.w3.org/2000/svg">
<path d="M1.51389 7.54186e-05C0.677833 7.53115e-05 7.53115e-05 0.677833 7.54186e-05 1.51389L7.54186e-05 15.1382C7.54186e-05 15.9743 0.677832 16.652 1.51389 16.652C2.34995 16.652 3.0277 15.9743 3.0277 15.1382V3.0277H15.1382C15.9743 3.0277 16.652 2.34995 16.652 1.51389C16.652 0.677832 15.9743 7.54186e-05 15.1382 7.54186e-05L1.51389 7.54186e-05ZM31.4859 32.9997C32.3219 32.9997 32.9997 32.3219 32.9997 31.4859L32.9997 17.8615C32.9997 17.0255 32.3219 16.3477 31.4859 16.3477C30.6498 16.3477 29.9721 17.0255 29.9721 17.8615L29.9721 29.9721L17.8615 29.9721C17.0255 29.9721 16.3477 30.6498 16.3477 31.4859C16.3477 32.3219 17.0255 32.9997 17.8615 32.9997L31.4859 32.9997ZM0.443461 2.58432L30.4154 32.5563L32.5563 30.4154L2.58432 0.443461L0.443461 2.58432Z" fill="black"/>
</svg>
