<svg width="133" height="133" viewBox="0 0 133 133" fill="none" xmlns="http://www.w3.org/2000/svg">
<circle cx="66.5" cy="66.5" r="66.5" fill="#5551FF"/>
<path d="M86.5 92C90.6421 92 94 88.6421 94 84.5C94 80.3579 90.6421 77 86.5 77C82.3579 77 79 80.3579 79 84.5C79 88.6421 82.3579 92 86.5 92Z" fill="white"/>
<path d="M97.5 62.0468H89.5C86.5 48.5678 73.5 39.5819 60 42.5772C50 44.5741 42 52.0624 40 62.0468H36.5C31.5 62.0468 27 66.5398 27 71.532V78.0218C27 81.5164 30 84.5117 33.5 84.5117H35C35 78.0218 40.5 72.5304 47 72.5304C53.5 72.5304 59 78.0218 59 84.5117H75C75 78.0218 80.5 72.5304 87 72.5304C93.5 72.5304 99 78.0218 99 84.5117H100.5C104 84.5117 107 81.5164 107 78.0218V72.0312C107 66.5398 102.5 62.0468 97.5 62.0468V62.0468ZM48 62.0468C50.5 52.5616 60.5 47.5694 69.5 50.0655C75 51.5631 79.5 56.0561 81.5 62.0468H48ZM47 77.0234C43 77.0234 39.5 80.5179 39.5 84.5117C39.5 88.5055 43 92 47 92C51 92 54.5 88.5055 54.5 84.5117C54.5 80.5179 51 77.0234 47 77.0234Z" fill="white"/>
</svg>
