<svg width="24" height="24" viewBox="0 0 24 24" fill="none" xmlns="http://www.w3.org/2000/svg">
<g opacity="0.3">
<path d="M10.2071 17.7929L9.5 17.0858L10.2071 17.7929ZM8.70711 19.2929L9.41421 20L8.70711 19.2929ZM6.37498 16.8009L5.91433 17.6885L6.37498 16.8009ZM4 11.25C4 8.35051 6.3505 6 9.25 6V4C5.24594 4 2 7.24594 2 11.25H4ZM6.83562 15.9134C5.14882 15.0379 4 13.2773 4 11.25H2C2 14.053 3.5909 16.4827 5.91433 17.6885L6.83562 15.9134ZM8 18.5858V17.7687H6V18.5858H8ZM9.5 17.0858L8 18.5858L9.41421 20L10.9142 18.5L9.5 17.0858ZM14.75 16.5H10.9142V18.5H14.75V16.5ZM20 11.25C20 14.1495 17.6495 16.5 14.75 16.5V18.5C18.7541 18.5 22 15.2541 22 11.25H20ZM14.75 6C17.6495 6 20 8.35051 20 11.25H22C22 7.24594 18.7541 4 14.75 4V6ZM9.25 6H14.75V4H9.25V6ZM10.9142 18.5V16.5C10.3838 16.5 9.87507 16.7107 9.5 17.0858L10.9142 18.5ZM6 18.5858C6 20.3676 8.15428 21.2599 9.41421 20L8 18.5858L8 18.5858H6ZM5.91433 17.6885C5.95381 17.709 5.97918 17.735 5.99168 17.7539C6.00266 17.7705 6 17.7747 6 17.7687H8C8 16.9223 7.47732 16.2464 6.83562 15.9134L5.91433 17.6885Z" fill="black"/>
</g>
</svg>
