<svg width="48" height="48" viewBox="0 0 48 48" fill="none" xmlns="http://www.w3.org/2000/svg">
<rect width="48" height="48" fill="white"/>
<path d="M20.5607 35.4393L19.1464 34.0251L20.5607 35.4393ZM16.5607 39.4393L15.1464 38.0251L16.5607 39.4393ZM8 22.5C8 16.701 12.701 12 18.5 12V8C10.4919 8 4 14.4919 4 22.5H8ZM13.9285 31.9558C10.4155 30.2537 8 26.657 8 22.5H4C4 28.2477 7.3444 33.2104 12.1844 35.5555L13.9285 31.9558ZM16 38.3787V35.1944H12V38.3787H16ZM19.1464 34.0251L15.1464 38.0251L17.9749 40.8536L21.9749 36.8536L19.1464 34.0251ZM29.5 33H21.6213V37H29.5V33ZM40 22.5C40 28.299 35.299 33 29.5 33V37C37.5081 37 44 30.5081 44 22.5H40ZM29.5 12C35.299 12 40 16.701 40 22.5H44C44 14.4919 37.5081 8 29.5 8V12ZM18.5 12H29.5V8H18.5V12ZM21.9749 36.8536C21.8811 36.9473 21.7539 37 21.6213 37V33C20.6931 33 19.8028 33.3687 19.1464 34.0251L21.9749 36.8536ZM12 38.3787C12 41.4968 15.77 43.0584 17.9749 40.8536L15.1464 38.0251C15.4614 37.7101 16 37.9332 16 38.3787H12ZM12.1844 35.5555C12.1515 35.5395 12.1114 35.5102 12.075 35.4558C12.0362 35.3978 12 35.3066 12 35.1944H16C16 33.7166 15.0901 32.5186 13.9285 31.9558L12.1844 35.5555Z" fill="#949494"/>
</svg>
