<svg width="48" height="48" viewBox="0 0 48 48" fill="none" xmlns="http://www.w3.org/2000/svg">
<rect width="48" height="48" rx="12" fill="#A259FF"/>
<path d="M35.6517 22.1749L35.6678 22.1785L35.684 22.1813C35.9252 22.2232 36.1822 22.3444 36.457 22.5924C36.6638 22.7791 36.75 22.9784 36.75 23.2354V24.9229C36.75 25.1488 36.6763 25.2999 36.498 25.439C36.2127 25.6618 35.9237 25.8053 35.6295 25.883L33.4483 26.4086L33.044 26.506L32.9125 26.9005C32.8293 27.15 32.7426 27.3852 32.6526 27.6062C32.5662 27.8184 32.4677 28.0271 32.3572 28.2323L32.1559 28.6062L32.3729 28.9712L33.5331 30.9224L33.5407 30.9352L33.5489 30.9478C33.7083 31.193 33.8138 31.4846 33.8545 31.8379C33.8802 32.0606 33.8245 32.231 33.6474 32.4081L32.4609 33.5947C32.2789 33.7767 32.083 33.8522 31.8199 33.8376C31.4583 33.8175 31.1755 33.7233 30.9478 33.5753L30.9478 33.5752L30.9429 33.5721L29.0444 32.3592L28.6858 32.1301L28.3052 32.3204C28.0719 32.437 27.8391 32.5451 27.6069 32.6446C27.3865 32.7391 27.1469 32.8271 26.8876 32.9082L26.4709 33.0384L26.3784 33.4651L25.9038 35.6535L25.9005 35.6687L25.8978 35.684C25.8559 35.9252 25.7347 36.1822 25.4867 36.457C25.3 36.6638 25.1007 36.75 24.8438 36.75H23.1562C22.9303 36.75 22.7792 36.6763 22.6401 36.498C22.4171 36.2124 22.2735 35.9231 22.1959 35.6286L21.67 33.4727L21.5696 33.0609L21.1651 32.9345C20.9043 32.853 20.6425 32.759 20.3799 32.6523C20.1224 32.5477 19.8736 32.4313 19.6332 32.3031L19.2473 32.0973L18.8782 32.3317L16.927 33.571L16.9162 33.5779L16.9056 33.5851C16.7053 33.7221 16.4356 33.8172 16.0622 33.8375C15.7855 33.8526 15.6039 33.774 15.4478 33.6092L15.438 33.5988L15.4278 33.5889L14.2264 32.4136C14.0691 32.2436 14.0131 32.0704 14.04 31.8379C14.0819 31.4743 14.1837 31.1748 14.3332 30.9255C14.3333 30.9253 14.3334 30.9251 14.3335 30.9249L15.5721 28.8695L15.785 28.5161L15.6005 28.147C15.5006 27.9473 15.4048 27.7431 15.313 27.5344C15.2309 27.3478 15.1587 27.1471 15.0971 26.9317L14.9769 26.511L14.5517 26.4086L12.3705 25.883C12.0763 25.8053 11.7873 25.6618 11.502 25.439C11.3237 25.2999 11.25 25.1488 11.25 24.9229V23.2354C11.25 22.9784 11.3362 22.7791 11.543 22.5924C11.8178 22.3444 12.0748 22.2232 12.316 22.1813L12.3322 22.1785L12.3483 22.1749L14.5104 21.7003L14.9477 21.6043L15.0708 21.1738C15.132 20.9595 15.2091 20.7433 15.3026 20.5249C15.4056 20.2848 15.5082 20.0538 15.6107 19.8319L15.7772 19.471L15.5721 19.1305L14.3335 17.0751C14.3334 17.0749 14.3333 17.0747 14.3332 17.0745C14.1838 16.8252 14.0819 16.5258 14.04 16.1621C14.0131 15.9296 14.0691 15.7564 14.2264 15.5864L15.4278 14.4111L15.438 14.4012L15.4478 14.3908C15.6039 14.226 15.7855 14.1474 16.0622 14.1625C16.4356 14.1828 16.7053 14.2779 16.9056 14.4149L16.9162 14.4221L16.927 14.429L18.8782 15.6683L19.2473 15.9027L19.6332 15.6969C19.8766 15.5671 20.1237 15.4497 20.3745 15.3445C20.6253 15.2393 20.88 15.1463 21.1387 15.0655L21.5379 14.9407L21.6416 14.5357L22.1953 12.3736L22.1987 12.3603L22.2016 12.3468C22.2632 12.0637 22.3944 11.783 22.6137 11.502C22.7466 11.3317 22.9023 11.25 23.1562 11.25H24.8438C25.1 11.25 25.291 11.3353 25.4667 11.5354C25.7164 11.8198 25.8489 12.0826 25.9045 12.3234L26.378 14.5331L26.4677 14.952L26.8742 15.0875C27.1212 15.1698 27.3639 15.2604 27.6024 15.359C27.8408 15.4577 28.0751 15.5646 28.3052 15.6796L28.6858 15.8699L29.0444 15.6408L30.9429 14.4279L30.9429 14.4279L30.9478 14.4247C31.1755 14.2767 31.4583 14.1825 31.8199 14.1624C32.083 14.1478 32.2789 14.2233 32.4609 14.4053L33.6474 15.5919C33.8245 15.769 33.8802 15.9394 33.8545 16.1621C33.8138 16.5154 33.7083 16.807 33.5489 17.0522L33.5407 17.0648L33.5331 17.0776L32.3729 19.0288L32.1635 19.381L32.3468 19.7475C32.465 19.984 32.5791 20.225 32.6892 20.4704L33.3735 20.1636L32.6892 20.4704C32.7847 20.6835 32.8628 20.9096 32.9228 21.1497L33.0355 21.6007L33.4896 21.7003L35.6517 22.1749Z" stroke="white" stroke-width="1.5"/>
</svg>
