<svg width="97" height="23" viewBox="0 0 97 23" fill="none" xmlns="http://www.w3.org/2000/svg">
<path d="M0.0294188 18.412C-0.133434 19.2261 0.394507 20.0181 1.2086 20.1809L14.4749 22.8346C15.289 22.9975 16.081 22.4696 16.2438 21.6555C16.4067 20.8414 15.8787 20.0494 15.0646 19.8866L3.27235 17.5277L5.63123 5.7354C5.79407 4.92132 5.26614 4.12935 4.45205 3.96651C3.63796 3.80366 2.846 4.3316 2.68315 5.14568L0.0294188 18.412ZM96.2087 11.6918C97.0015 10.4146 97.0006 10.4141 96.9996 10.4135C96.9991 10.4131 96.9979 10.4124 96.9968 10.4117C96.9945 10.4103 96.9916 10.4085 96.988 10.4063C96.9809 10.4019 96.9711 10.3959 96.9587 10.3884C96.9338 10.3732 96.8984 10.3518 96.8525 10.3244C96.7608 10.2697 96.6274 10.1912 96.4533 10.0916C96.1053 9.8924 95.5948 9.60888 94.9306 9.26268C93.6024 8.57037 91.6585 7.62678 89.1695 6.60561C84.1931 4.56393 77.027 2.20773 68.2394 0.934141C50.6392 -1.61663 26.5777 0.185299 0.669651 17.4561L2.33725 19.9577C27.543 3.15509 50.8341 1.4495 67.8081 3.90953C76.3076 5.14135 83.234 7.42013 88.0283 9.3871C90.4246 10.3702 92.2856 11.2744 93.541 11.9287C94.1686 12.2558 94.6445 12.5204 94.96 12.7009C95.1177 12.7912 95.2353 12.8605 95.3117 12.9061C95.3499 12.9288 95.3777 12.9457 95.3952 12.9563C95.4039 12.9616 95.41 12.9653 95.4134 12.9675C95.4152 12.9685 95.4162 12.9692 95.4167 12.9695C95.4169 12.9696 95.4167 12.9695 95.4168 12.9695C95.4164 12.9693 95.4159 12.969 96.2087 11.6918Z" fill="black" fill-opacity="0.5"/>
</svg>
