<svg width="176" height="40" viewBox="0 0 176 40" fill="none" xmlns="http://www.w3.org/2000/svg">
<path d="M0.0243291 4.17799C-0.123148 3.35866 0.421501 2.57491 1.24082 2.42743L14.5925 0.0241255C15.4119 -0.123355 16.1956 0.421287 16.3431 1.24061C16.4906 2.05994 15.9459 2.84369 15.1266 2.99117L3.25841 5.12744L5.39469 16.9956C5.54217 17.815 4.99753 18.5987 4.1782 18.7462C3.35887 18.8937 2.57512 18.349 2.42764 17.5297L0.0243291 4.17799ZM175.357 25.5165C176.002 26.8789 176.001 26.8794 176 26.88C175.999 26.8804 175.997 26.8812 175.996 26.882C175.992 26.8837 175.987 26.8859 175.981 26.8887C175.969 26.8944 175.952 26.9025 175.929 26.9129C175.885 26.9337 175.819 26.9637 175.734 27.0025C175.563 27.08 175.312 27.1925 174.982 27.3356C174.323 27.6218 173.35 28.0303 172.085 28.5264C169.555 29.5184 165.851 30.8611 161.132 32.2754C151.697 35.1037 138.193 38.2217 121.891 39.3929C89.2724 41.7364 45.4509 36.2832 0.647669 5.14879L2.36805 2.67312C46.4993 33.3406 89.6025 38.6902 121.675 36.386C137.718 35.2334 151.002 32.1649 160.267 29.3876C164.899 27.9992 168.524 26.6844 170.985 25.7196C172.215 25.2373 173.154 24.8426 173.782 24.5701C174.096 24.4338 174.332 24.3282 174.488 24.2574C174.566 24.222 174.624 24.1953 174.661 24.1779C174.68 24.1692 174.694 24.1629 174.702 24.1589C174.706 24.1569 174.709 24.1555 174.711 24.1547C174.712 24.1543 174.712 24.1541 174.713 24.1539C174.713 24.1539 174.712 24.1541 175.357 25.5165Z" fill="black" fill-opacity="0.5"/>
</svg>
