<svg width="45" height="45" viewBox="0 0 45 45" fill="none" xmlns="http://www.w3.org/2000/svg">
<path d="M2.06427 1.25344e-06C0.924185 1.21122e-06 -3.3183e-05 0.924219 -3.31408e-05 2.0643L-3.34786e-05 20.643C-3.34786e-05 21.7831 0.924185 22.7073 2.06427 22.7073C3.20435 22.7073 4.12856 21.7831 4.12856 20.643L4.12856 4.1286L20.6429 4.1286C21.783 4.1286 22.7072 3.20438 22.7072 2.0643C22.7072 0.924219 21.783 9.15656e-07 20.6429 9.15656e-07L2.06427 1.25344e-06ZM42.9353 44.9996C44.0754 44.9996 44.9996 44.0754 44.9996 42.9353L44.9996 24.3566C44.9996 23.2166 44.0754 22.2923 42.9353 22.2923C41.7952 22.2923 40.871 23.2166 40.871 24.3566L40.871 40.871L24.3566 40.871C23.2165 40.871 22.2923 41.7952 22.2923 42.9353C22.2923 44.0754 23.2165 44.9996 24.3566 44.9996L42.9353 44.9996ZM0.604586 3.52398L41.4756 44.395L44.395 41.4756L3.52394 0.60462L0.604586 3.52398Z" fill="black"/>
</svg>
