<svg width="58" height="58" viewBox="0 0 58 58" fill="none" xmlns="http://www.w3.org/2000/svg">
<rect width="58" height="58" rx="12" fill="#A259FF"/>
<path fill-rule="evenodd" clip-rule="evenodd" d="M21.125 29.3947V27.1053C21.125 23.7923 23.334 20.9762 26.4117 19.9458C26.388 19.8093 26.375 19.6693 26.375 19.5263C26.375 18.1311 27.5503 17 29 17C30.4497 17 31.625 18.1311 31.625 19.5263C31.625 19.6693 31.612 19.8093 31.5883 19.9458C34.666 20.9762 36.875 23.7923 36.875 27.1053V29.3947C36.875 31.1593 36.938 33.849 39.5 36.0263V36.9737H18.5V36.0263C21.062 33.849 21.125 31.1593 21.125 29.3947Z" stroke="white" stroke-width="3" stroke-linecap="round" stroke-linejoin="round"/>
<path fill-rule="evenodd" clip-rule="evenodd" d="M24.5 36.9736H33.0312C33.0312 39.1973 31.1215 40.9999 28.7656 40.9999C26.4098 40.9999 24.5 39.1973 24.5 36.9736Z" stroke="white" stroke-width="3" stroke-linecap="round" stroke-linejoin="round"/>
</svg>
