<svg width="42" height="21" viewBox="0 0 42 21" fill="none" xmlns="http://www.w3.org/2000/svg">
<path d="M0.115531 7.3447C-0.205733 6.5648 0.166068 5.67212 0.945973 5.35086L13.6553 0.115523C14.4352 -0.205743 15.3279 0.166059 15.6491 0.945966C15.9704 1.72587 15.5986 2.61855 14.8187 2.93981L3.52153 7.59344L8.17515 18.8906C8.49642 19.6705 8.12462 20.5632 7.34471 20.8845C6.56481 21.2057 5.67213 20.8339 5.35087 20.054L0.115531 7.3447ZM41.8713 15.1402C41.9153 16.6668 41.9149 16.6669 41.9143 16.6669C41.9141 16.6669 41.9135 16.6669 41.9129 16.6669C41.9119 16.6669 41.9105 16.667 41.9088 16.667C41.9055 16.6671 41.9011 16.6672 41.8955 16.6674C41.8843 16.6677 41.8685 16.668 41.8482 16.6684C41.8076 16.6693 41.749 16.6703 41.6729 16.6713C41.5206 16.6732 41.2982 16.6748 41.0096 16.6735C40.4325 16.6709 39.5907 16.657 38.5164 16.612C36.368 16.5221 33.2877 16.3079 29.5332 15.8118C22.0282 14.82 11.8057 12.6982 0.940466 8.17286L2.11489 5.35314C12.6731 9.75064 22.6224 11.8175 29.9333 12.7836C33.5868 13.2664 36.5755 13.4735 38.6441 13.5601C39.6783 13.6034 40.482 13.6166 41.0233 13.619C41.2939 13.6202 41.4989 13.6187 41.6343 13.617C41.7019 13.6162 41.7522 13.6153 41.7845 13.6146C41.8007 13.6142 41.8124 13.614 41.8195 13.6138C41.8231 13.6137 41.8255 13.6136 41.8268 13.6136C41.8275 13.6136 41.8278 13.6136 41.8279 13.6136C41.8279 13.6136 41.8278 13.6136 41.8278 13.6136C41.8276 13.6136 41.8273 13.6136 41.8713 15.1402Z" fill="black" fill-opacity="0.5"/>
</svg>
