<svg width="114" height="37" viewBox="0 0 114 37" fill="none" xmlns="http://www.w3.org/2000/svg">
<path d="M113.075 21.5549C113.843 21.8773 114.205 22.7613 113.882 23.5295L108.629 36.0476C108.307 36.8157 107.423 37.1771 106.654 36.8548C105.886 36.5324 105.525 35.6484 105.847 34.8802L110.517 23.753L99.3896 19.0836C98.6214 18.7612 98.26 17.8772 98.5824 17.109C98.9047 16.3408 99.7888 15.9794 100.557 16.3018L113.075 21.5549ZM1.30951 0.747237C2.62045 0.00110043 2.62007 0.000439588 2.61982 -1.18731e-05C2.61989 0.000115635 2.61975 -0.000130506 2.61989 0.000121805C2.62018 0.00062403 2.62094 0.0019519 2.62218 0.0040964C2.62465 0.00838707 2.62902 0.0159457 2.6353 0.026705C2.64785 0.0482246 2.66804 0.0825444 2.69591 0.129124C2.75166 0.222288 2.83816 0.364469 2.95594 0.551347C3.19151 0.925138 3.55206 1.47752 4.04175 2.17396C5.02134 3.56716 6.51629 5.53486 8.55969 7.80173C12.6479 12.3371 18.9194 18.0566 27.6387 22.7757C45.0141 32.1796 72.334 37.7326 111.921 21.5496L113.062 24.342C72.7028 40.841 44.4319 35.2948 26.2028 25.4289C17.1199 20.513 10.5857 14.5551 6.3189 9.82162C4.18477 7.4541 2.61483 5.38957 1.57391 3.90915C1.05334 3.16879 0.664732 2.57401 0.403712 2.15984C0.273191 1.95274 0.174536 1.79074 0.107204 1.67822C0.0735364 1.62196 0.047696 1.57806 0.029615 1.54707C0.0205742 1.53158 0.0134729 1.51931 0.00830242 1.51034C0.0057173 1.50585 0.00361473 1.50219 0.00199387 1.49936C0.00118385 1.49795 0.00032785 1.49645 -7.64724e-05 1.49574C-0.000810749 1.49445 -0.00142521 1.49337 1.30951 0.747237Z" fill="black" fill-opacity="0.5"/>
</svg>
