<svg width="80" height="80" viewBox="0 0 80 80" fill="none" xmlns="http://www.w3.org/2000/svg">
<circle cx="40" cy="40" r="38" fill="white" stroke="black" stroke-width="4"/>
<path d="M40.0006 40C40.0006 36.3181 42.9854 33.3334 46.6673 33.3334H47.4079C50.6808 33.3334 53.3339 35.9865 53.3339 39.2594V40.7407C53.3339 44.0136 50.6808 46.6667 47.4079 46.6667H46.6673C42.9854 46.6667 40.0006 43.6819 40.0006 40V40Z" fill="#6AA7F3"/>
<path d="M26.6672 53.3333C26.6672 49.6514 29.652 46.6666 33.3339 46.6666H40.0006V53.3333C40.0006 57.0152 37.0158 60 33.3339 60V60C29.652 60 26.6672 57.0152 26.6672 53.3333V53.3333Z" fill="#0FA958"/>
<path d="M40.0006 20V33.3333H46.6673C50.3492 33.3333 53.3339 30.3486 53.3339 26.6667V26.6667C53.3339 22.9848 50.3492 20 46.6673 20H40.0006Z" fill="#FF8577"/>
<path d="M26.6672 26.6667C26.6672 30.3486 29.652 33.3334 33.3339 33.3334H40.0006V20H33.3339C29.652 20 26.6672 22.9848 26.6672 26.6667V26.6667Z" fill="#F24E1E"/>
<path d="M26.6672 40C26.6672 43.6819 29.652 46.6666 33.3339 46.6666H40.0006V33.3333H33.3339C29.652 33.3333 26.6672 36.3181 26.6672 40V40Z" fill="#A259FF"/>
</svg>
